<!--?xml version="1.0" encoding="utf-8"?-->
<!-- Generator: Adobe Illustrator 15.1.0, SVG Export Plug-In . SVG Version: 6.00 Build 0)  -->

<svg version="1.1" id="_x32_" xmlns="http://www.w3.org/2000/svg" xmlns:xlink="http://www.w3.org/1999/xlink" x="0px" y="0px" width="512px" height="512px" viewBox="0 0 512 512" style="width: 256px; height: 256px; opacity: 1;" xml:space="preserve">
<style type="text/css">

	.st0{fill:#4B4B4B;}

</style>
<g>
	<path class="st0" d="M392.891,242.125H183.234V128.344c0.016-20.188,8.094-38.219,21.313-51.469
		C217.813,63.656,235.828,55.578,256,55.563c20.172,0.016,38.188,8.094,51.453,21.313c13.219,13.25,21.297,31.281,21.313,51.469
		v45.75h55.563v-45.75c0.016-35.359-14.406-67.625-37.578-90.75C323.609,14.406,291.344-0.016,256,0
		c-35.344-0.016-67.609,14.406-90.75,37.594c-23.172,23.125-37.594,55.391-37.578,90.75v113.781h-8.563
		c-31.078,0-56.266,25.172-56.266,56.25V455.75c0,31.063,25.188,56.25,56.266,56.25h273.781c31.078,0,56.266-25.188,56.266-56.25
		V298.375C449.156,267.297,423.969,242.125,392.891,242.125z M272.266,394.469l8.859,57.438h-25.141h-25.109l8.859-57.438
		c-13.969-6.25-23.75-20.219-23.75-36.5c0-22.094,17.922-40.031,40-40.031c22.109,0,40.031,17.938,40.031,40.031
		C296.016,374.25,286.234,388.219,272.266,394.469z" style="fill: rgb(254 236 0);"></path>
</g>
</svg>
